#!OML:ASF E:/inclinewalkrobotboard/Project1/Captureday1/Session1/subject1.ASF
:FULLY-SPECIFIED
:DEGREES
138
root 0 0 0 -1.406175597881262 21.439590336472346 8.583607917232877
lowerback -4.02964884068286 -6.062467756043642 -6.357793598977411
upperback -8.39214384192004 -7.507475631811056 6.982002880807906
thorax -6.088285840256395 -2.6193812723320375 10.967873120919693
lowerneck -5.598618418977183 -8.875961995731062 -7.671009539370648
upperneck 32.22102600192999 -11.461535236647071 1.877662676704973
head 12.137046036880466 -5.834640727935847 0.368984442049348
rclavicle -3.726065528577554E-15 -2.429457105594133E-15
rhumerus -18.92599046101367 -26.938234948522712 -16.678704328591515
rradius 62.40260519700744
rwrist -12.265022814151685
rhand -26.618129448451736 32.381373263979484
rfingers 7.1250199999999655
rthumb -0.033865183778313934 1.6081128269602587
lclavicle 2.5172236997815634E-16 -3.8661877528010504E-15
lhumerus 22.087821182323246 3.2592316576920157 42.670931402200225
lradius 63.866444021961755
lwrist -6.808838290224296
lhand -14.189442066008782 7.472644721226228
lfingers 7.125019999999965
lthumb 11.785394653926181 35.62599489278911
rfemur 139.1738551294454 -155.0454707986131 -120.50098732880758
rtibia 28.471861121511076
rfoot -13.927985905839895 -49.71084179657553
rtoes 4.583998431197035
lfemur -82.08576624279267 24.026121778749314 -57.043193021188955
ltibia 68.28504656077354
lfoot 12.494647245408668 31.96698424420757
ltoes 0.1083311334296777
139
root 0 0 0 -1.4164540034239863 21.43584138994304 8.58919900585367
lowerback -4.02160020540453 -6.062177329594347 -6.359488362539585
upperback -8.388959244210142 -7.507185753574847 6.980827434710514
thorax -6.089939446290888 -2.6188520762335354 10.967565986755847
lowerneck -5.599460919477338 -8.874219798218302 -7.669565382914808
upperneck 32.21467786260084 -11.458690015848317 1.877700560577448
head 12.134540292847985 -5.83338024324394 0.3689689014031088
rclavicle -3.743807765038729E-15 -2.4352478100081583E-15
rhumerus -18.95945401752138 -26.938769845735607 -16.671381042516764
rradius 62.397779817303615
rwrist -12.253152810538438
rhand -26.619191924699404 32.385558456763896
rfingers 7.1250199999999655
rthumb -0.03488106383808187 1.6122781708809093
lclavicle 1.9854248089226964E-16 -3.887845011716608E-15
lhumerus 22.016997633515825 3.2567628033820024 42.81854827277763
lradius 63.861587058923035
lwrist -6.7500701088607515
lhand -14.252189187059301 7.471426422509403
lfingers 7.125019999999964
lthumb 11.725566951983406 35.63348472515796
rfemur 138.9265622743742 -154.79365451434825 -120.2481367946244
rtibia 28.423242486715758
rfoot -13.953031245828047 -49.607907714490366
rtoes 4.52246656926199
lfemur -82.09954980465842 24.013776821180876 -57.0761999991549
ltibia 68.20470802591814
lfoot 12.56601640814048 31.9998627373555
ltoes 0.12087026189598937
140
root 0 0 0 -1.4112193155247752 21.441996495033987 8.586479682287676
lowerback -4.0262080301703165 -6.062447549796493 -6.358914630158541
upperback -8.39064231396625 -7.507464032847343 6.981623317206173
thorax -6.088809575837223 -2.6191841706587873 10.96809529764261
lowerneck -5.598896816809873 -8.87569589332179 -7.670706355991158
upperneck 32.21871422759453 -11.460823586648758 1.87712857749626
head 12.136111242039522 -5.834394910937629 0.36879065337795847
rclavicle -3.727310792214586E-15 -2.4253891706673127E-15
rhumerus -18.937191491425743 -26.939235231479937 -16.677971966014482
rradius 62.40142719657345
rwrist -12.262782062449247
rhand -26.617524013044147 32.382649113891084
rfingers 7.1250199999999655
rthumb -0.033309809156662595 1.609604853543214
lclavicle 2.6155616833758904E-16 -3.865626882876577E-15
lhumerus 21.993050600249564 3.2405620810829445 42.806686283108434
lradius 63.87058356227662
lwrist -6.751094947496634
lhand -14.246803763471222 7.47009156737704
lfingers 7.125019999999965
lthumb 11.730520943509577 35.63049314523094
rfemur 139.04032476262182 -154.9195310343924 -120.36955018404478
rtibia 28.451958933185225
rfoot -13.961724150476474 -49.64031810302676
rtoes 4.550451017926683
lfemur -82.08552921379575 24.018642920453196 -57.07246938146017
ltibia 68.24651314129707
lfoot 12.527715920066289 31.9878434630833
ltoes 0.10058960431380548
141
root 0 0 0 -1.4094968266174348 21.44255341848447 8.585183739455209
lowerback -4.027410230608091 -6.06249797982219 -6.358270922484225
upperback -8.391169948741066 -7.507511322769648 6.981873557095515
thorax -6.088591852692678 -2.6193040929009026 10.967991052135325
lowerneck -5.598819632205316 -8.875930593242312 -7.670937776867807
upperneck 32.21967537698195 -11.46121499547629 1.8771341957844117
head 12.13651091183636 -5.8345706710937675 0.3688021275351343
rclavicle -3.721636160049276E-15 -2.424408905603265E-15
rhumerus -18.93209355204049 -26.93920426525663 -16.679936370563958
rradius 62.402239649151916
rwrist -12.265085987650885
rhand -26.61757221101226 32.38218333397034
rfingers 7.1250199999999655
rthumb -0.03335489333707997 1.6091161575578141
lclavicle 2.7348488373283263E-16 -3.8612046992026845E-15
lhumerus 22.00442726312095 3.2363576992888072 42.77146777965199
lradius 63.873986200739594
lwrist -6.761930548499043
lhand -14.2261356428 7.472007267527655
lfingers 7.125019999999965
lthumb 11.750221549593318 35.62923129874739
rfemur 139.09713450357393 -154.97565810086522 -120.42736045981775
rtibia 28.466364716908757
rfoot -13.950747153393314 -49.668940197356505
rtoes 4.565877061699975
lfemur -82.08642309491917 24.02342908185451 -57.05832178715083
ltibia 68.26851917609962
lfoot 12.517134082766798 31.97605054563262
ltoes 0.10622667381261586
142
root 0 0 0 -1.406272337306266 21.439111525237774 8.583195670931426
lowerback -4.029288562597233 -6.062436780863125 -6.357534534339997
upperback -8.391944473661654 -7.507445513878871 6.981991078337227
thorax -6.088261283257792 -2.619400503911745 10.967716841603409
lowerneck -5.598796122811233 -8.875914277185789 -7.670973074840885
upperneck 32.220955426583664 -11.461484564574679 1.8776948137581548
head 12.137059031781765 -5.834612660460833 0.3689948685581318
rclavicle -3.724052951304546E-15 -2.4280416979710983E-15
rhumerus -18.924549572111545 -26.938276960005417 -16.679628686041085
rradius 62.40383811979874
rwrist -12.266761500938465
rhand -26.618099616079324 32.381609136422576
rfingers 7.1250199999999655
rthumb -0.033845749362264144 1.608405595565106
lclavicle 2.5916415266568835E-16 -3.8651991191031684E-15
lhumerus 22.06084239497672 3.244739621339197 42.70052211949675
lradius 63.87129547140723
lwrist -6.790435208979525
lhand -14.193036983477251 7.473789558397218
lfingers 7.125019999999965
lthumb 11.781879660327311 35.62670862427383
rfemur 139.17335588923407 -155.04698697323246 -120.50038008560483
rtibia 28.471341525792887
rfoot -13.933321622488023 -49.70305814977473
rtoes 4.5811170375759005
lfemur -82.08645199305464 24.02642453658126 -57.04288200345861
ltibia 68.28401073439088
lfoot 12.49685340235359 31.96705171230296
ltoes 0.10925571156374936
143
root 0 0 0 -1.4127703503662268 21.432935907963692 8.58617202563345
lowerback -4.024256596425842 -6.0619911925238394 -6.357697064211569
upperback -8.389904184782491 -7.5069089486491585 6.981131148048638
thorax -6.089293994083348 -2.618951681093586 10.966885451933933
lowerneck -5.599317310920596 -8.874372950459215 -7.669770457579621
upperneck 32.21640563991086 -11.459233759760433 1.878408563389374
head 12.135271235915178 -5.833543661012711 0.3692137906223908
rclavicle -3.694277563641906E-15 -2.4327377094021363E-15
rhumerus -18.93836928248284 -26.93815086854887 -16.662234150994486
rradius 62.40866505892904
rwrist -12.25957046995363
rhand -26.621172382395322 32.38490671626692
rfingers 7.1250199999999655
rthumb -0.03683369090566302 1.6113461268977858
lclavicle 2.735623546954712E-16 -3.872532655434891E-15
lhumerus 22.08798532421089 3.2704248357767 42.72503443968608
lradius 63.858658913231324
lwrist -6.7801370512217645
lhand -14.226251900526307 7.4733869560408905
lfingers 7.125019999999965
lthumb 11.750668740145494 35.632353469367274
rfemur 138.93921223877962 -154.81775120340276 -120.27101635195112
rtibia 28.412740183523514
rfoot -13.94940332456904 -49.62483445323939
rtoes 4.5332435316843736
lfemur -82.09073618100612 24.008760722506793 -57.07328545603461
ltibia 68.2048001171761
lfoot 12.550068864118902 32.00321555344912
ltoes 0.1190924389244632
144
root 0 0 0 -1.4148206402818069 21.43344758103505 8.58712136365648
lowerback -4.0216018801756785 -6.062153200981426 -6.359538240940119
upperback -8.38861294975025 -7.507247105286886 6.9807018061437915
thorax -6.0894491963387685 -2.619011306817834 10.967543268566601
lowerneck -5.599932879993556 -8.874233595061417 -7.669574271054955
upperneck 32.215850892936174 -11.458976081965337 1.8781602110337294
head 12.135154776009312 -5.833432845594248 0.36911127772954144
rclavicle -3.7806479679344766E-15 -2.4296393074407178E-15
rhumerus -18.97821368724918 -26.941533918662692 -16.65340860329644
rradius 62.39312116157845
rwrist -12.242888908048002
rhand -26.619017215817077 32.38783687842429
rfingers 7.1250199999999655
rthumb -0.03479147368243929 1.6147884541337376
lclavicle 1.720230472152935E-16 -3.888569810752777E-15
lhumerus 21.948495278036592 3.234371591739479 42.90184369436482
lradius 63.86067731816422
lwrist -6.721080087398605
lhand -14.279563029017426 7.464530381354205
lfingers 7.125019999999964
lthumb 11.699368965518703 35.62948986126318
rfemur 138.88695853532136 -154.7478314161973 -120.21896394562609
rtibia 28.451273373641605
rfoot -13.95803923545537 -49.60274458674772
rtoes 4.532282431601857
lfemur -82.08500111955632 24.005131335705947 -57.101525357870244
ltibia 68.21844428964971
lfoot 12.594235363893308 31.994060995843085
ltoes 0.0957986213738149
